<svg role="img" viewBox="0 0 512 512" xmlns="http://www.w3.org/2000/svg"><path fill="#13ce66" d="M223.12 460.39l-48.8-14.16a9.61 9.61 0 01-6.55-11.92L277 58.18a9.61 9.61 0 0111.92-6.56l48.8 14.16a9.61 9.61 0 016.55 11.92L235 453.83a9.59 9.59 0 01-11.88 6.56zm-91.2-89.75l34.8-37.12a9.6 9.6 0 00-.63-13.76L93.6 256.02l72.48-63.76a9.53 9.53 0 00.64-13.76l-34.8-37.12a9.61 9.61 0 00-13.6-.4L3.06 249.02a9.54 9.54 0 000 14l115.27 108a9.54 9.54 0 0013.6-.4zm261.75.48l115.27-108.1a9.54 9.54 0 000-14L393.67 140.89a9.69 9.69 0 00-13.6.4l-34.8 37.12a9.6 9.6 0 00.64 13.76l72.48 63.85-72.48 63.74a9.53 9.53 0 00-.64 13.76l34.8 37.12a9.61 9.61 0 0013.6.48z"/></svg>